<svg width="48" height="48" viewBox="0 0 48 48" fill="none" xmlns="http://www.w3.org/2000/svg">
<path d="M24 0C10.7452 0 0 10.7452 0 24C0 37.2548 10.7452 48 24 48C37.2548 48 48 37.2548 48 24C48 10.7452 37.2548 0 24 0ZM26.4 4.8V21.6H33.6C30.7408 12.0152 26.4 4.8 26.4 4.8ZM21.6 4.8V21.6H14.4C17.2592 12.0152 21.6 4.8 21.6 4.8ZM21.6 26.4V43.2C21.6 43.2 17.2592 35.9848 14.4 26.4H21.6ZM26.4 26.4H33.6C30.7408 35.9848 26.4 43.2 26.4 43.2V26.4Z" fill="#006938"/>
<path d="M24 0V21.6H33.6C30.7408 12.0152 26.4 4.8 24 4.8V0Z" fill="#8CC63F"/>
<path d="M21.6 26.4V43.2C21.6 43.2 17.2592 35.9848 14.4 26.4H21.6Z" fill="#8CC63F"/>
</svg>
